<svg width="30" height="30" fill="none" xmlns="http://www.w3.org/2000/svg"><path d="M17.813 19.688h-5.625A2.812 2.812 0 009.374 22.5v1.875h1.875V22.5a.938.938 0 01.938-.938h5.624a.938.938 0 01.938.938v1.875h1.875V22.5a2.812 2.812 0 00-2.813-2.813zM15 18.75a3.75 3.75 0 100-7.5 3.75 3.75 0 000 7.5zm0-5.625a1.875 1.875 0 110 3.75 1.875 1.875 0 010-3.75z" fill="#1D61B1"/><path d="M23.438 4.688h-2.813V3.75a1.875 1.875 0 00-1.875-1.875h-7.5A1.875 1.875 0 009.375 3.75v.938H6.562a1.875 1.875 0 00-1.875 1.875V26.25a1.875 1.875 0 001.875 1.875h16.875a1.875 1.875 0 001.875-1.875V6.562a1.875 1.875 0 00-1.875-1.875zM11.25 3.75h7.5V7.5h-7.5V3.75zm12.188 22.5H6.563V6.562h2.812v2.813h11.25V6.562h2.813V26.25z" fill="#1D61B1"/></svg>