<svg width="30" height="30" fill="none" xmlns="http://www.w3.org/2000/svg"><path d="M13.125 4.688h-7.5a.937.937 0 00-.938.937v7.5a.937.937 0 00.938.938h7.5a.938.938 0 00.938-.938v-7.5a.938.938 0 00-.938-.938zm-.938 7.5H6.564V6.561h5.625v5.625zm12.188-7.5h-7.5a.937.937 0 00-.938.937v7.5a.938.938 0 00.938.938h7.5a.938.938 0 00.938-.938v-7.5a.938.938 0 00-.938-.938zm-.938 7.5h-5.625V6.561h5.625v5.625zm-10.312 3.75h-7.5a.938.938 0 00-.938.937v7.5a.937.937 0 00.938.938h7.5a.938.938 0 00.938-.938v-7.5a.938.938 0 00-.938-.938zm-.938 7.5H6.564v-5.625h5.625v5.625zm12.188-7.5h-7.5a.938.938 0 00-.938.937v7.5a.938.938 0 00.938.938h7.5a.938.938 0 00.938-.938v-7.5a.938.938 0 00-.938-.938zm-.938 7.5h-5.625v-5.625h5.625v5.625z" fill="#1D61B1"/></svg>