<svg width="9" height="5" viewBox="0 0 9 5" fill="none" xmlns="http://www.w3.org/2000/svg">
<path d="M4.49883 4.99956C4.3528 4.99985 4.21127 4.94899 4.09883 4.85581L0.34883 1.73081C0.221194 1.62473 0.140929 1.47228 0.125692 1.30701C0.110454 1.14175 0.161493 0.977197 0.26758 0.849562C0.373666 0.721926 0.526111 0.641661 0.691377 0.626424C0.856644 0.611187 1.02119 0.662225 1.14883 0.768312L4.49883 3.56831L7.84883 0.868312C7.91276 0.816396 7.98632 0.777626 8.06528 0.754231C8.14424 0.730836 8.22705 0.723278 8.30894 0.73199C8.39083 0.740702 8.4702 0.765512 8.54247 0.804996C8.61475 0.84448 8.6785 0.897858 8.73008 0.962062C8.78732 1.02633 8.83067 1.10172 8.85741 1.18351C8.88416 1.26531 8.89372 1.35175 8.88551 1.43741C8.87729 1.52308 8.85148 1.60612 8.80967 1.68134C8.76787 1.75657 8.71099 1.82235 8.64258 1.87456L4.89258 4.89331C4.7769 4.97176 4.63827 5.00917 4.49883 4.99956Z" fill="#0D4689" fill-opacity="0.43"/>
</svg>
