<svg width="20" height="20" viewBox="0 0 20 20" fill="none" xmlns="http://www.w3.org/2000/svg">
<path d="M13.7296 4.50652L15.4946 6.27069L13.7296 4.50652ZM14.8646 2.95236L10.0921 7.72486C9.84554 7.9711 9.67737 8.28484 9.6088 8.62652L9.16797 10.8332L11.3746 10.3915C11.7163 10.3232 12.0296 10.1557 12.2763 9.90902L17.0488 5.13652C17.1922 4.99311 17.306 4.82285 17.3836 4.63547C17.4612 4.44809 17.5012 4.24726 17.5012 4.04444C17.5012 3.84162 17.4612 3.64079 17.3836 3.45341C17.306 3.26603 17.1922 3.09577 17.0488 2.95236C16.9054 2.80894 16.7351 2.69518 16.5478 2.61756C16.3604 2.53995 16.1595 2.5 15.9567 2.5C15.7539 2.5 15.5531 2.53995 15.3657 2.61756C15.1783 2.69518 15.0081 2.80894 14.8646 2.95236V2.95236Z" stroke="#BBBCBC" stroke-width="2" stroke-linecap="round" stroke-linejoin="round"/>
<path d="M15.834 12.4998V14.9998C15.834 15.4419 15.6584 15.8658 15.3458 16.1783C15.0333 16.4909 14.6093 16.6665 14.1673 16.6665H5.00065C4.55862 16.6665 4.1347 16.4909 3.82214 16.1783C3.50958 15.8658 3.33398 15.4419 3.33398 14.9998V5.83317C3.33398 5.39114 3.50958 4.96722 3.82214 4.65466C4.1347 4.3421 4.55862 4.1665 5.00065 4.1665H7.50065" stroke="#BBBCBC" stroke-width="2" stroke-linecap="round" stroke-linejoin="round"/>
</svg>
