<svg width="33" height="33" viewBox="0 0 33 33" fill="none" xmlns="http://www.w3.org/2000/svg">
<path d="M26.125 28.875H6.875C6.14565 28.875 5.44618 28.5853 4.93046 28.0695C4.41473 27.5538 4.125 26.8543 4.125 26.125V20.625H6.875V26.125H26.125V6.875H6.875V12.375H4.125V6.875C4.125 6.14565 4.41473 5.44618 4.93046 4.93046C5.44618 4.41473 6.14565 4.125 6.875 4.125H26.125C26.8543 4.125 27.5538 4.41473 28.0695 4.93046C28.5853 5.44618 28.875 6.14565 28.875 6.875V26.125C28.875 26.8543 28.5853 27.5538 28.0695 28.0695C27.5538 28.5853 26.8543 28.875 26.125 28.875ZM15.125 22V17.875H4.125V15.125H15.125V11L22 16.5L15.125 22Z" fill="#0D4689"/>
</svg>
