<svg width="20" height="20" viewBox="0 0 20 20" fill="none" xmlns="http://www.w3.org/2000/svg">
<path d="M5.72851 14.2745C4.19101 13.1828 2.97434 11.7628 2.28684 10.8662C2.09459 10.6186 1.99023 10.3142 1.99023 10.0007C1.99023 9.68733 2.09459 9.38285 2.28684 9.13533C3.53101 7.51116 6.51601 4.16699 10.001 4.16699C11.5643 4.16699 13.026 4.83949 14.276 5.72866" stroke="#CFCFCF" stroke-width="2" stroke-linecap="round" stroke-linejoin="round"/>
<path d="M11.7765 8.23908C11.545 8.00381 11.2693 7.81668 10.9652 7.68849C10.6611 7.5603 10.3346 7.49359 10.0046 7.49221C9.6746 7.49083 9.34758 7.5548 9.04241 7.68043C8.73724 7.80607 8.45997 7.99088 8.22658 8.22421C7.9932 8.45754 7.80832 8.73477 7.68261 9.03991C7.5569 9.34505 7.49286 9.67206 7.49416 10.0021C7.49546 10.3321 7.5621 10.6586 7.69021 10.9627C7.81833 11.2668 8.00539 11.5426 8.24062 11.7741" stroke="#CFCFCF" stroke-width="2" stroke-linecap="round" stroke-linejoin="round"/>
<path d="M3.33398 16.6668L16.6673 3.3335" stroke="#CFCFCF" stroke-width="2" stroke-linecap="round" stroke-linejoin="round"/>
<path d="M8.33398 15.5867C8.87499 15.7477 9.43619 15.8308 10.0007 15.8333C13.4857 15.8333 16.4707 12.4892 17.7148 10.865C17.907 10.6173 18.0113 10.3126 18.0111 9.99902C18.011 9.68547 17.9064 9.38089 17.714 9.13333C17.2767 8.56291 16.8077 8.0176 16.309 7.5" stroke="#CFCFCF" stroke-width="2" stroke-linecap="round" stroke-linejoin="round"/>
</svg>
