<svg width="30" height="30" viewBox="0 0 30 30" fill="none" xmlns="http://www.w3.org/2000/svg">
<path d="M27.7286 14.795L16.4083 3.48054L15.6495 2.72175C15.4766 2.55001 15.2428 2.45361 14.9991 2.45361C14.7554 2.45361 14.5216 2.55001 14.3488 2.72175L2.26965 14.795C2.0925 14.9715 1.95249 15.1816 1.85789 15.4131C1.76329 15.6445 1.71602 15.8926 1.71887 16.1426C1.73059 17.1739 2.58899 17.9971 3.62024 17.9971H4.86536V27.5391H25.1329V17.9971H26.4044C26.9054 17.9971 27.3771 17.8009 27.7316 17.4464C27.9061 17.2724 28.0444 17.0655 28.1385 16.8377C28.2325 16.6099 28.2804 16.3657 28.2794 16.1192C28.2794 15.6212 28.0831 15.1495 27.7286 14.795ZM16.6398 25.4298H13.3585V19.4532H16.6398V25.4298ZM23.0236 15.8878V25.4298H18.5148V18.7501C18.5148 18.1026 17.9904 17.5782 17.3429 17.5782H12.6554C12.0079 17.5782 11.4835 18.1026 11.4835 18.7501V25.4298H6.97473V15.8878H4.16223L15.0021 5.05671L15.6788 5.73347L25.839 15.8878H23.0236Z" fill="#1D61B1"/>
</svg>
