<svg width="78" height="78" viewBox="0 0 78 78" fill="none" xmlns="http://www.w3.org/2000/svg">
<path d="M6.5 19.5C6.5 16.0522 7.86964 12.7456 10.3076 10.3076C12.7456 7.86964 16.0522 6.5 19.5 6.5H58.5C61.9478 6.5 65.2544 7.86964 67.6924 10.3076C70.1304 12.7456 71.5 16.0522 71.5 19.5V58.5C71.5 61.9478 70.1304 65.2544 67.6924 67.6924C65.2544 70.1304 61.9478 71.5 58.5 71.5H19.5C16.0522 71.5 12.7456 70.1304 10.3076 67.6924C7.86964 65.2544 6.5 61.9478 6.5 58.5V19.5Z" stroke="#B4B4B4" stroke-opacity="0.45" stroke-width="2" stroke-linecap="round" stroke-linejoin="round"/>
<path d="M27.625 35.75C32.1123 35.75 35.75 32.1123 35.75 27.625C35.75 23.1377 32.1123 19.5 27.625 19.5C23.1377 19.5 19.5 23.1377 19.5 27.625C19.5 32.1123 23.1377 35.75 27.625 35.75Z" stroke="#B4B4B4" stroke-opacity="0.45" stroke-width="2" stroke-linecap="round" stroke-linejoin="round"/>
<path d="M47.2095 41.0182L19.5 71.5H58.9322C62.2654 71.5 65.4621 70.1759 67.819 67.819C70.1759 65.4621 71.5 62.2654 71.5 58.9322V58.5C71.5 56.9855 70.9313 56.4037 69.9075 55.2825L56.81 40.9987C56.1996 40.3329 55.4571 39.8015 54.6298 39.4386C53.8026 39.0758 52.9088 38.8893 52.0054 38.8911C51.1021 38.893 50.2091 39.0831 49.3833 39.4493C48.5576 39.8155 47.8172 40.3499 47.2095 41.0182V41.0182Z" stroke="#B4B4B4" stroke-opacity="0.45" stroke-width="2" stroke-linecap="round" stroke-linejoin="round"/>
</svg>
