<svg width="210" height="220" viewBox="0 0 210 220" fill="none" xmlns="http://www.w3.org/2000/svg">
<rect width="210" height="220" rx="10" fill="#DDE9FE"/>
<path d="M72.5 90.5C72.5 87.0522 73.8696 83.7456 76.3076 81.3076C78.7456 78.8696 82.0522 77.5 85.5 77.5H124.5C127.948 77.5 131.254 78.8696 133.692 81.3076C136.13 83.7456 137.5 87.0522 137.5 90.5V129.5C137.5 132.948 136.13 136.254 133.692 138.692C131.254 141.13 127.948 142.5 124.5 142.5H85.5C82.0522 142.5 78.7456 141.13 76.3076 138.692C73.8696 136.254 72.5 132.948 72.5 129.5V90.5Z" stroke="#B4B4B4" stroke-opacity="0.45" stroke-width="2" stroke-linecap="round" stroke-linejoin="round"/>
<path d="M93.625 106.75C98.1123 106.75 101.75 103.112 101.75 98.625C101.75 94.1377 98.1123 90.5 93.625 90.5C89.1377 90.5 85.5 94.1377 85.5 98.625C85.5 103.112 89.1377 106.75 93.625 106.75Z" stroke="#B4B4B4" stroke-opacity="0.45" stroke-width="2" stroke-linecap="round" stroke-linejoin="round"/>
<path d="M113.21 112.018L85.5 142.5H124.932C128.265 142.5 131.462 141.176 133.819 138.819C136.176 136.462 137.5 133.265 137.5 129.932V129.5C137.5 127.985 136.931 127.404 135.908 126.282L122.81 111.999C122.2 111.333 121.457 110.802 120.63 110.439C119.803 110.076 118.909 109.889 118.005 109.891C117.102 109.893 116.209 110.083 115.383 110.449C114.558 110.816 113.817 111.35 113.21 112.018V112.018Z" stroke="#B4B4B4" stroke-opacity="0.45" stroke-width="2" stroke-linecap="round" stroke-linejoin="round"/>
</svg>
