<svg width="299" height="111" viewBox="0 0 299 111" fill="none" xmlns="http://www.w3.org/2000/svg">
<g clip-path="url(#clip0_1023_7709)">
<path d="M44.0747 40.3291C44.0747 40.3291 15.6888 56.7891 20.7436 78.5307C26.6507 103.936 98.1178 111 98.1178 111C98.1178 111 45.9004 98.2035 38.2771 72.6104C32.3701 53.5096 44.0747 40.3291 44.0747 40.3291Z" fill="#234D9C"/>
<path d="M9.29297 0C9.29297 0 42.8353 9.74042 52.6478 26.7411C59.9857 37.8176 48.93 50.8061 48.93 50.8061C48.93 50.8061 71.7998 38.7736 67.6051 25.4011C63.4142 12.0325 27.7764 2.10011 9.29297 0Z" fill="#234D9C"/>
<path d="M52.362 108.077C24.5938 108.077 2.0016 85.4344 2.0016 57.6041C2.0016 36.936 14.4647 19.1321 32.2562 11.339C31.5134 10.9315 30.7706 10.5397 30.0278 10.1558C12.2989 18.5719 0 36.6735 0 57.6041C0 86.5393 23.4875 110.083 52.362 110.083C57.8821 110.083 63.2066 109.221 68.2106 107.627C66.901 107.317 65.5796 106.992 64.2543 106.651C60.4349 107.576 56.4552 108.077 52.362 108.077Z" fill="#234D9C"/>
<path d="M52.3598 7.13499C80.128 7.13499 102.72 29.7777 102.72 57.608C102.72 76.6422 92.1493 93.2393 76.5861 101.836C77.3719 102.173 78.1538 102.494 78.9239 102.807C94.3503 93.6664 104.718 76.8303 104.718 57.6041C104.718 28.6689 81.2304 5.125 52.3559 5.125C48.8335 5.125 45.3933 5.48155 42.0664 6.15154C43.3448 6.60604 44.6036 7.07622 45.8468 7.56206C47.9813 7.28388 50.151 7.13499 52.3598 7.13499Z" fill="#234D9C"/>
<path d="M141.696 19.062V52.746H138.897V21.5147H128.201L127.798 34.3309C127.591 41.1954 126.958 45.9794 125.891 48.6868C124.823 51.3942 122.869 52.746 120.023 52.746H119.147V50.3403H119.905C121.723 50.3403 122.986 49.2471 123.69 47.0569C124.393 44.8667 124.839 40.6273 125.031 34.3348L125.527 19.0659H141.696V19.062Z" fill="#234D9C"/>
<path d="M168.072 40.6469C168.072 44.7961 167.157 47.9306 165.331 50.0503C163.505 52.17 160.964 53.2318 157.708 53.2318C154.514 53.2318 152.027 52.1661 150.249 50.0386C148.47 47.911 147.579 44.7805 147.579 40.6469V31.2082C147.579 27.0745 148.466 23.9361 150.249 21.7929C152.027 19.6497 154.514 18.5762 157.708 18.5762C160.949 18.5762 163.486 19.6537 165.319 21.8047C167.153 23.9557 168.072 27.0902 168.072 31.2082V40.6469ZM165.272 31.1415C165.272 27.7641 164.627 25.2448 163.337 23.5874C162.047 21.9301 160.171 21.0994 157.704 21.0994C155.315 21.0994 153.501 21.9301 152.262 23.5874C151.019 25.2448 150.401 27.7641 150.401 31.1415V40.6508C150.401 44.0595 151.023 46.5946 152.262 48.2637C153.505 49.9289 155.319 50.7634 157.704 50.7634C160.171 50.7634 162.047 49.9328 163.337 48.2754C164.627 46.6181 165.272 44.0752 165.272 40.6508V31.1415Z" fill="#234D9C"/>
<path d="M177.459 19.0618L186.47 48.6513H186.564L195.575 19.0618H199.179V52.7458H196.404V37.9627L196.689 24.1514L196.619 24.1279L187.44 52.7458H185.59L176.435 24.1279L176.364 24.1514L176.65 37.9627V52.7458H173.897V19.0618H177.459Z" fill="#234D9C"/>
<path d="M221.87 21.5145H208.281V33.6842H214.993C217.917 33.6842 220.146 34.5305 221.682 36.2192C223.214 37.9079 223.985 40.2274 223.985 43.1699C223.985 46.132 223.214 48.4672 221.67 50.1794C220.13 51.8916 217.902 52.7458 214.993 52.7458H205.458V19.0618H221.87V21.5145ZM208.281 36.1134V50.34H214.993C217.112 50.34 218.672 49.674 219.676 48.3379C220.681 47.0018 221.182 45.2661 221.182 43.119C221.182 41.0698 220.677 39.385 219.665 38.0764C218.652 36.7677 217.096 36.1095 214.993 36.1095H208.281V36.1134Z" fill="#234D9C"/>
<path d="M244.184 43.2835H232.444L229.645 52.7458H226.752L237.116 19.0618H239.63L249.853 52.7458H246.96L244.184 43.2835ZM233.179 40.8543H243.473L238.375 23.548H238.305L233.179 40.8543Z" fill="#234D9C"/>
<path d="M257.112 38.7973V52.7496H254.312V19.0618H264.035C266.944 19.0618 269.168 19.9473 270.712 21.7222C272.253 23.4971 273.023 25.8949 273.023 28.9158C273.023 31.9719 272.253 34.3816 270.712 36.1447C269.172 37.9118 266.944 38.7934 264.035 38.7934H257.112V38.7973ZM257.112 36.368H264.035C266.138 36.368 267.694 35.6745 268.707 34.2875C269.719 32.9005 270.224 31.1256 270.224 28.9667C270.224 26.7765 269.723 24.9859 268.719 23.5989C267.714 22.2119 266.154 21.5184 264.035 21.5184H257.112V36.368Z" fill="#234D9C"/>
<path d="M298.962 55.7157H296.163V52.7457H276.073V55.7157H273.274V50.34H275.291C276.272 49.1215 277.222 47.0096 278.149 44.0005C279.075 40.9914 279.615 36.7442 279.775 31.2549L280.295 19.0618H295.76V50.34H298.962V55.7157ZM282.598 31.2549C282.422 35.7451 281.941 39.5966 281.151 42.8094C280.361 46.0262 279.38 48.5338 278.211 50.34H292.938V21.5145H283L282.598 31.2549Z" fill="#234D9C"/>
<path d="M143.148 101.173H136.291V72.763H125.982V101.173H119.102V67.4893H143.148V101.173Z" fill="#234D9C"/>
<path d="M176.362 93.9796H167.484L165.733 101.173H158.801L168.395 67.4893H175.522L185.068 101.173H178.164L176.362 93.9796ZM168.766 88.7293H175.08L171.948 76.0503H171.874L168.766 88.7293Z" fill="#234D9C"/>
<path d="M207.568 89.0976V101.173H200.688V67.4893H212.674C216.141 67.4893 218.858 68.4688 220.825 70.4278C222.791 72.3869 223.772 75.0081 223.772 78.2954C223.772 81.5945 222.791 84.2235 220.825 86.1708C218.858 88.122 216.141 89.0976 212.674 89.0976H207.568ZM207.568 83.8239H212.674C214.069 83.8239 215.125 83.3145 215.832 82.2958C216.54 81.2771 216.892 79.9606 216.892 78.3385C216.892 76.689 216.536 75.3451 215.832 74.3146C215.125 73.2802 214.073 72.763 212.674 72.763H207.568V83.8239Z" fill="#234D9C"/>
<path d="M250.201 82.7816L250.252 82.9423H250.327L255.061 67.4893H262.262L252.789 94.6261C251.836 96.926 250.788 98.6696 249.646 99.8646C248.505 101.06 246.839 101.659 244.65 101.659C244.322 101.659 243.946 101.647 243.528 101.624C243.11 101.6 242.758 101.581 242.48 101.565L242.406 96.3148C242.539 96.3618 242.762 96.3892 243.086 96.3971C243.407 96.4049 243.681 96.4088 243.911 96.4088C244.947 96.4088 245.694 96.1424 246.155 95.6095C246.617 95.0767 246.992 94.2264 247.289 93.0549L247.61 91.9226H247.559L237.594 67.4932H244.943L250.201 82.7816Z" fill="#234D9C"/>
<path d="M298.971 90.696C298.955 94.3829 297.974 97.1334 296.035 98.9436C294.096 100.758 291.281 101.663 287.599 101.663C283.998 101.663 281.23 100.624 279.299 98.5518C277.368 96.4791 276.402 93.4191 276.402 89.3795V79.3139C276.402 75.3213 277.391 72.2691 279.373 70.1651C281.355 68.0611 284.096 67.0071 287.599 67.0071C291.348 67.0071 294.155 67.92 296.023 69.7498C297.888 71.5756 298.881 74.381 298.994 78.158H292.114C292.196 76.0305 291.903 74.5181 291.238 73.6248C290.574 72.7314 289.358 72.2809 287.599 72.2809C286.101 72.2809 285.003 72.8411 284.307 73.9578C283.607 75.0784 283.259 76.8455 283.259 79.2668V89.3756C283.259 91.8753 283.588 93.6698 284.244 94.7669C284.901 95.864 286.019 96.4086 287.599 96.4086C289.244 96.4086 290.421 95.9815 291.137 95.1234C291.852 94.2654 292.169 92.7922 292.087 90.6921H298.971V90.696Z" fill="#234D9C"/>
</g>
<defs>
<clipPath id="clip0_1023_7709">
<rect width="299" height="111" fill="white"/>
</clipPath>
</defs>
</svg>
