<svg width="79" height="29" viewBox="0 0 79 29" fill="none" xmlns="http://www.w3.org/2000/svg">
<path d="M11.644 10.5361C11.644 10.5361 4.14409 14.8365 5.47964 20.5167C7.04036 27.1541 25.923 28.9997 25.923 28.9997C25.923 28.9997 12.1264 25.6565 10.1122 18.97C8.55151 13.9797 11.644 10.5361 11.644 10.5361Z" fill="white"/>
<path d="M2.45508 0C2.45508 0 11.3174 2.54479 13.91 6.98641C15.8488 9.88027 12.9277 13.2737 12.9277 13.2737C12.9277 13.2737 18.9703 10.13 17.862 6.63632C16.7547 3.14363 7.33867 0.548676 2.45508 0Z" fill="white"/>
<path d="M13.8348 28.2364C6.49803 28.2364 0.52885 22.3207 0.52885 15.0497C0.52885 9.64997 3.82176 4.9985 8.52254 2.96246C8.32628 2.856 8.13003 2.75364 7.93378 2.65332C3.24953 4.85212 0 9.58139 0 15.0497C0 22.6094 6.20572 28.7605 13.8348 28.7605C15.2933 28.7605 16.7001 28.5353 18.0222 28.1187C17.6762 28.0378 17.3271 27.9528 16.9769 27.8638C15.9677 28.1054 14.9162 28.2364 13.8348 28.2364Z" fill="white"/>
<path d="M13.8349 1.864C21.1716 1.864 27.1408 7.77967 27.1408 15.0507C27.1408 20.0235 24.3478 24.3597 20.2358 26.6056C20.4434 26.6936 20.65 26.7776 20.8535 26.8595C24.9294 24.4713 27.6686 20.0727 27.6686 15.0496C27.6686 7.48998 21.4629 1.33887 13.8339 1.33887C12.9032 1.33887 11.9942 1.43202 11.1152 1.60706C11.453 1.72581 11.7856 1.84864 12.1141 1.97558C12.678 1.9029 13.2513 1.864 13.8349 1.864Z" fill="white"/>
<path d="M37.4383 4.97998V13.7803H36.6987V5.62079H33.8727L33.7663 8.96914C33.7116 10.7626 33.5442 12.0125 33.2622 12.7198C32.9803 13.4271 32.4638 13.7803 31.7118 13.7803H31.4805V13.1518H31.6809C32.1612 13.1518 32.4948 12.8662 32.6807 12.294C32.8666 11.7217 32.9844 10.6141 33.035 8.97017L33.1662 4.981H37.4383V4.97998Z" fill="white"/>
<path d="M44.4067 10.6192C44.4067 11.7033 44.165 12.5222 43.6826 13.076C43.2003 13.6298 42.5289 13.9072 41.6685 13.9072C40.8246 13.9072 40.1676 13.6288 39.6977 13.0729C39.2277 12.5171 38.9922 11.6992 38.9922 10.6192V8.15327C38.9922 7.07332 39.2267 6.25338 39.6977 5.69344C40.1676 5.13351 40.8246 4.85303 41.6685 4.85303C42.5247 4.85303 43.1951 5.13453 43.6795 5.69652C44.164 6.2585 44.4067 7.07742 44.4067 8.15327V10.6192ZM43.6671 8.13587C43.6671 7.25349 43.4967 6.59528 43.1558 6.16228C42.815 5.72927 42.3192 5.51226 41.6674 5.51226C41.0363 5.51226 40.557 5.72927 40.2296 6.16228C39.9011 6.59528 39.7379 7.25349 39.7379 8.13587V10.6203C39.7379 11.5108 39.9022 12.1731 40.2296 12.6092C40.5581 13.0443 41.0373 13.2623 41.6674 13.2623C42.3192 13.2623 42.815 13.0453 43.1558 12.6123C43.4967 12.1793 43.6671 11.5149 43.6671 10.6203V8.13587Z" fill="white"/>
<path d="M46.8882 4.97998L49.2691 12.7106H49.2939L51.6748 4.97998H52.6271V13.7803H51.8937V9.91807L51.9691 6.3097L51.9505 6.30356L49.5253 13.7803H49.0367L46.6176 6.30356L46.599 6.3097L46.6744 9.91807V13.7803H45.9473V4.97998H46.8882Z" fill="white"/>
<path d="M58.6213 5.62079H55.0309V8.80024H56.8044C57.577 8.80024 58.1658 9.02135 58.5717 9.46254C58.9766 9.90374 59.1801 10.5097 59.1801 11.2785C59.1801 12.0524 58.9766 12.6625 58.5686 13.1098C58.1617 13.5571 57.5729 13.7803 56.8044 13.7803H54.2852V4.97998H58.6213V5.62079ZM55.0309 9.43491V13.1518H56.8044C57.3643 13.1518 57.7764 12.9778 58.0418 12.6287C58.3073 12.2796 58.4395 11.8262 58.4395 11.2652C58.4395 10.7298 58.3063 10.2897 58.0387 9.94775C57.7712 9.60585 57.3601 9.43388 56.8044 9.43388H55.0309V9.43491Z" fill="white"/>
<path d="M64.5179 11.3082H61.416L60.6765 13.7803H59.9121L62.6504 4.97998H63.3145L66.0156 13.7803H65.2512L64.5179 11.3082ZM61.6102 10.6735H64.3299L62.9829 6.15206H62.9644L61.6102 10.6735Z" fill="white"/>
<path d="M67.9329 10.1361V13.7813H67.1934V4.97998H69.7622C70.5307 4.97998 71.1184 5.21132 71.5264 5.67504C71.9334 6.13875 72.1369 6.76523 72.1369 7.55446C72.1369 8.35291 71.9334 8.98245 71.5264 9.44309C71.1195 9.90476 70.5307 10.1351 69.7622 10.1351H67.9329V10.1361ZM67.9329 9.50144H69.7622C70.3179 9.50144 70.729 9.32025 70.9965 8.95788C71.2641 8.59551 71.3973 8.1318 71.3973 7.56777C71.3973 6.99555 71.2651 6.52774 70.9996 6.16537C70.7342 5.80299 70.322 5.62181 69.7622 5.62181H67.9329V9.50144Z" fill="white"/>
<path d="M78.9904 14.5562H78.2508V13.7803H72.9427V14.5562H72.2031V13.1518H72.7361C72.9954 12.8334 73.2464 12.2817 73.4912 11.4955C73.736 10.7093 73.8785 9.59971 73.9209 8.16558L74.0582 4.97998H78.1444V13.1518H78.9904V14.5562ZM74.6666 8.16558C74.6201 9.33868 74.4931 10.3449 74.2844 11.1843C74.0758 12.0247 73.8165 12.6799 73.5077 13.1518H77.3987V5.62079H74.773L74.6666 8.16558Z" fill="white"/>
<path d="M37.8222 26.4326H36.0105V19.0102H33.2867V26.4326H31.4688V17.6323H37.8222V26.4326Z" fill="white"/>
<path d="M46.5968 24.5532H44.2511L43.7884 26.4326H41.957L44.4918 17.6323H46.3748L48.8971 26.4326H47.073L46.5968 24.5532ZM44.5899 23.1815H46.2581L45.4307 19.869H45.4111L44.5899 23.1815Z" fill="white"/>
<path d="M54.8414 23.2778V26.4326H53.0234V17.6323H56.1903C57.1065 17.6323 57.8244 17.8882 58.344 18.4001C58.8635 18.9119 59.1228 19.5967 59.1228 20.4556C59.1228 21.3175 58.8635 22.0043 58.344 22.5131C57.8244 23.0229 57.1065 23.2778 56.1903 23.2778H54.8414ZM54.8414 21.8999H56.1903C56.5591 21.8999 56.838 21.7668 57.0249 21.5007C57.2119 21.2345 57.3048 20.8906 57.3048 20.4668C57.3048 20.0359 57.2109 19.6847 57.0249 19.4155C56.838 19.1453 56.5601 19.0102 56.1903 19.0102H54.8414V21.8999Z" fill="white"/>
<path d="M66.1085 21.6276L66.1219 21.6696H66.1415L67.3924 17.6323H69.295L66.7923 24.7221C66.5402 25.323 66.2634 25.7785 65.9618 26.0907C65.6602 26.403 65.2202 26.5596 64.6417 26.5596C64.555 26.5596 64.4558 26.5565 64.3453 26.5504C64.2348 26.5442 64.1418 26.5391 64.0685 26.535L64.0489 25.1633C64.084 25.1756 64.1428 25.1828 64.2286 25.1848C64.3133 25.1869 64.3856 25.1879 64.4465 25.1879C64.7202 25.1879 64.9175 25.1183 65.0394 24.9791C65.1613 24.8398 65.2605 24.6177 65.339 24.3116L65.4237 24.0158H65.4102L62.7773 17.6333H64.7192L66.1085 21.6276Z" fill="white"/>
<path d="M78.9923 23.6953C78.9882 24.6586 78.7289 25.3772 78.2166 25.8501C77.7042 26.3241 76.9605 26.5605 75.9875 26.5605C75.0362 26.5605 74.3049 26.2893 73.7947 25.7478C73.2844 25.2062 73.0293 24.4068 73.0293 23.3514V20.7216C73.0293 19.6785 73.2906 18.8811 73.8143 18.3314C74.338 17.7817 75.0621 17.5063 75.9875 17.5063C76.9781 17.5063 77.7197 17.7449 78.2135 18.2229C78.7062 18.6999 78.9685 19.4329 78.9985 20.4197H77.1806C77.2022 19.8638 77.1248 19.4687 76.9492 19.2353C76.7736 19.0019 76.4524 18.8842 75.9875 18.8842C75.5919 18.8842 75.3017 19.0306 75.1178 19.3223C74.9329 19.6151 74.841 20.0767 74.841 20.7093V23.3504C74.841 24.0035 74.9278 24.4723 75.1013 24.7589C75.2748 25.0455 75.5703 25.1878 75.9875 25.1878C76.4224 25.1878 76.7333 25.0762 76.9223 24.8521C77.1114 24.6279 77.195 24.243 77.1733 23.6943H78.9923V23.6953Z" fill="white"/>
</svg>
