<svg width="30" height="30" viewBox="0 0 30 30" fill="none" xmlns="http://www.w3.org/2000/svg">
<path d="M17.8125 19.6875H12.1875C11.4416 19.6875 10.7262 19.9838 10.1988 20.5113C9.67132 21.0387 9.375 21.7541 9.375 22.5V24.375H11.25V22.5C11.25 22.2514 11.3488 22.0129 11.5246 21.8371C11.7004 21.6613 11.9389 21.5625 12.1875 21.5625H17.8125C18.0611 21.5625 18.2996 21.6613 18.4754 21.8371C18.6512 22.0129 18.75 22.2514 18.75 22.5V24.375H20.625V22.5C20.625 21.7541 20.3287 21.0387 19.8012 20.5113C19.2738 19.9838 18.5584 19.6875 17.8125 19.6875Z" fill="#1D61B1"/>
<path d="M15 18.75C15.7417 18.75 16.4667 18.5301 17.0834 18.118C17.7001 17.706 18.1807 17.1203 18.4645 16.4351C18.7484 15.7498 18.8226 14.9958 18.6779 14.2684C18.5333 13.541 18.1761 12.8728 17.6516 12.3484C17.1272 11.8239 16.459 11.4668 15.7316 11.3221C15.0042 11.1774 14.2502 11.2516 13.5649 11.5355C12.8797 11.8193 12.294 12.2999 11.882 12.9166C11.4699 13.5333 11.25 14.2583 11.25 15C11.25 15.9946 11.6451 16.9484 12.3483 17.6517C13.0516 18.3549 14.0054 18.75 15 18.75ZM15 13.125C15.3708 13.125 15.7334 13.235 16.0417 13.441C16.35 13.647 16.5904 13.9399 16.7323 14.2825C16.8742 14.6251 16.9113 15.0021 16.839 15.3658C16.7666 15.7295 16.588 16.0636 16.3258 16.3258C16.0636 16.5881 15.7295 16.7666 15.3658 16.839C15.0021 16.9113 14.6251 16.8742 14.2825 16.7323C13.9399 16.5904 13.647 16.35 13.441 16.0417C13.235 15.7334 13.125 15.3708 13.125 15C13.125 14.5027 13.3225 14.0258 13.6742 13.6742C14.0258 13.3225 14.5027 13.125 15 13.125Z" fill="#1D61B1"/>
<path d="M23.4375 4.6875H20.625V3.75C20.625 3.25272 20.4275 2.77581 20.0758 2.42417C19.7242 2.07254 19.2473 1.875 18.75 1.875H11.25C10.7527 1.875 10.2758 2.07254 9.92418 2.42417C9.57254 2.77581 9.375 3.25272 9.375 3.75V4.6875H6.5625C6.06522 4.6875 5.58831 4.88504 5.23667 5.23667C4.88504 5.58831 4.6875 6.06522 4.6875 6.5625V26.25C4.6875 26.7473 4.88504 27.2242 5.23667 27.5758C5.58831 27.9275 6.06522 28.125 6.5625 28.125H23.4375C23.9348 28.125 24.4117 27.9275 24.7633 27.5758C25.115 27.2242 25.3125 26.7473 25.3125 26.25V6.5625C25.3125 6.06522 25.115 5.58831 24.7633 5.23667C24.4117 4.88504 23.9348 4.6875 23.4375 4.6875ZM11.25 3.75H18.75V7.5H11.25V3.75ZM23.4375 26.25H6.5625V6.5625H9.375V9.375H20.625V6.5625H23.4375V26.25Z" fill="#1D61B1"/>
</svg>
