<svg width="20" height="20" viewBox="0 0 20 20" fill="none" xmlns="http://www.w3.org/2000/svg">
<path d="M17.8666 8.93334L4.96662 2.48334C4.7926 2.40271 4.60117 2.36689 4.40976 2.37913C4.21835 2.39138 4.03305 2.4513 3.87071 2.55345C3.70838 2.6556 3.57417 2.79673 3.48031 2.96399C3.38644 3.13125 3.3359 3.31933 3.33329 3.51111V16.4056C3.33167 16.6024 3.38085 16.7964 3.4761 16.9687C3.57134 17.141 3.70942 17.2858 3.87699 17.3891C4.04456 17.4925 4.23595 17.5508 4.43267 17.5586C4.62939 17.5663 4.82478 17.5232 4.99996 17.4333L17.8666 10.9833C18.0572 10.8877 18.2175 10.7409 18.3294 10.5594C18.4414 10.3779 18.5007 10.1688 18.5007 9.95556C18.5007 9.7423 18.4414 9.53324 18.3294 9.35174C18.2175 9.17024 18.0572 9.02346 17.8666 8.92778V8.93334Z" fill="#0D4689"/>
</svg>
