<svg width="30" height="30" viewBox="0 0 30 30" fill="none" xmlns="http://www.w3.org/2000/svg">
<path d="M24.375 1.875H5.625C5.10645 1.875 4.6875 2.29395 4.6875 2.8125V27.1875C4.6875 27.7061 5.10645 28.125 5.625 28.125H24.375C24.8936 28.125 25.3125 27.7061 25.3125 27.1875V2.8125C25.3125 2.29395 24.8936 1.875 24.375 1.875ZM16.7578 3.98438H19.5703V10.1338L18.208 9.14062L16.7578 10.1777V3.98438ZM23.2031 26.0156H6.79688V3.98438H15V12.6826C15 12.7793 15.0293 12.876 15.0879 12.9551C15.1235 13.0054 15.1686 13.0481 15.2208 13.0808C15.273 13.1135 15.3312 13.1355 15.3919 13.1456C15.4527 13.1557 15.5148 13.1536 15.5748 13.1395C15.6347 13.1254 15.6913 13.0996 15.7412 13.0635L18.1963 11.3086L20.5811 13.0488C20.6602 13.1074 20.7568 13.1396 20.8564 13.1396C21.1143 13.1396 21.3252 12.9287 21.3252 12.6709V3.98438H23.2002V26.0156H23.2031Z" fill="#1D61B1"/>
</svg>
