<svg width="26" height="26" viewBox="0 0 26 26" fill="none" xmlns="http://www.w3.org/2000/svg">
<path d="M11.7932 3.64706C13.3576 3.64563 14.8873 4.10823 16.1888 4.97634C17.4903 5.84445 18.505 7.07906 19.1047 8.524C19.7044 9.96893 19.862 11.5593 19.5577 13.0938C19.2533 14.6283 18.5007 16.0381 17.395 17.1449C16.2893 18.2516 14.8802 19.0055 13.3459 19.3112C11.8116 19.617 10.2212 19.4608 8.7757 18.8624C7.33022 18.2641 6.09468 17.2505 5.22538 15.9498C4.35608 14.6491 3.89208 13.1198 3.89208 11.5554C3.90156 9.46214 4.73682 7.45722 6.21631 5.97638C7.6958 4.49554 9.69995 3.65846 11.7932 3.64706ZM11.7932 2.1665C9.93624 2.1665 8.121 2.71715 6.577 3.74882C5.03301 4.78048 3.82961 6.24683 3.11899 7.96242C2.40837 9.67802 2.22243 11.5658 2.58471 13.3871C2.94698 15.2083 3.84118 16.8813 5.15424 18.1943C6.4673 19.5074 8.14024 20.4016 9.96151 20.7639C11.7828 21.1262 13.6706 20.9402 15.3862 20.2296C17.1018 19.519 18.5681 18.3156 19.5998 16.7716C20.6314 15.2276 21.1821 13.4123 21.1821 11.5554C21.1821 9.06531 20.1929 6.6772 18.4321 4.91645C16.6714 3.15569 14.2833 2.1665 11.7932 2.1665Z" fill="#1B5AA3"/>
<path d="M25.278 24.0425L19.9552 18.6836L18.9297 19.7019L24.2525 25.0608C24.3193 25.1282 24.3988 25.1817 24.4863 25.2183C24.5739 25.2549 24.6678 25.2739 24.7627 25.2743C24.8576 25.2746 24.9516 25.2562 25.0394 25.2202C25.1272 25.1842 25.2071 25.1313 25.2744 25.0644C25.3417 24.9976 25.3953 24.9181 25.4319 24.8305C25.4685 24.743 25.4875 24.6491 25.4879 24.5542C25.4882 24.4593 25.4698 24.3653 25.4338 24.2775C25.3978 24.1897 25.3449 24.1098 25.278 24.0425Z" fill="#1B5AA3"/>
</svg>
