<svg width="30" height="30" viewBox="0 0 30 30" fill="none" xmlns="http://www.w3.org/2000/svg">
<path d="M13.125 4.6875H5.625C5.37636 4.6875 5.1379 4.78627 4.96209 4.96209C4.78627 5.1379 4.6875 5.37636 4.6875 5.625V13.125C4.6875 13.3736 4.78627 13.6121 4.96209 13.7879C5.1379 13.9637 5.37636 14.0625 5.625 14.0625H13.125C13.3736 14.0625 13.6121 13.9637 13.7879 13.7879C13.9637 13.6121 14.0625 13.3736 14.0625 13.125V5.625C14.0625 5.37636 13.9637 5.1379 13.7879 4.96209C13.6121 4.78627 13.3736 4.6875 13.125 4.6875ZM12.1875 12.1875H6.5625V6.5625H12.1875V12.1875ZM24.375 4.6875H16.875C16.6264 4.6875 16.3879 4.78627 16.2121 4.96209C16.0363 5.1379 15.9375 5.37636 15.9375 5.625V13.125C15.9375 13.3736 16.0363 13.6121 16.2121 13.7879C16.3879 13.9637 16.6264 14.0625 16.875 14.0625H24.375C24.6236 14.0625 24.8621 13.9637 25.0379 13.7879C25.2137 13.6121 25.3125 13.3736 25.3125 13.125V5.625C25.3125 5.37636 25.2137 5.1379 25.0379 4.96209C24.8621 4.78627 24.6236 4.6875 24.375 4.6875ZM23.4375 12.1875H17.8125V6.5625H23.4375V12.1875ZM13.125 15.9375H5.625C5.37636 15.9375 5.1379 16.0363 4.96209 16.2121C4.78627 16.3879 4.6875 16.6264 4.6875 16.875V24.375C4.6875 24.6236 4.78627 24.8621 4.96209 25.0379C5.1379 25.2137 5.37636 25.3125 5.625 25.3125H13.125C13.3736 25.3125 13.6121 25.2137 13.7879 25.0379C13.9637 24.8621 14.0625 24.6236 14.0625 24.375V16.875C14.0625 16.6264 13.9637 16.3879 13.7879 16.2121C13.6121 16.0363 13.3736 15.9375 13.125 15.9375ZM12.1875 23.4375H6.5625V17.8125H12.1875V23.4375ZM24.375 15.9375H16.875C16.6264 15.9375 16.3879 16.0363 16.2121 16.2121C16.0363 16.3879 15.9375 16.6264 15.9375 16.875V24.375C15.9375 24.6236 16.0363 24.8621 16.2121 25.0379C16.3879 25.2137 16.6264 25.3125 16.875 25.3125H24.375C24.6236 25.3125 24.8621 25.2137 25.0379 25.0379C25.2137 24.8621 25.3125 24.6236 25.3125 24.375V16.875C25.3125 16.6264 25.2137 16.3879 25.0379 16.2121C24.8621 16.0363 24.6236 15.9375 24.375 15.9375ZM23.4375 23.4375H17.8125V17.8125H23.4375V23.4375Z" fill="#1D61B1"/>
</svg>
