<svg width="20" height="20" fill="none" xmlns="http://www.w3.org/2000/svg"><path d="M5.729 14.274c-1.538-1.091-2.755-2.511-3.442-3.408a1.411 1.411 0 010-1.73C3.53 7.51 6.516 4.166 10 4.166c1.563 0 3.025.672 4.275 1.562M11.777 8.24a2.501 2.501 0 10-3.536 3.534m-4.907 4.893L16.667 3.333M8.334 15.587a5.936 5.936 0 001.667.246c3.485 0 6.47-3.344 7.714-4.968a1.411 1.411 0 00-.001-1.732A19.119 19.119 0 0016.309 7.5" stroke="#CFCFCF" stroke-width="2" stroke-linecap="round" stroke-linejoin="round"/></svg>