<svg width="30" height="30" fill="none" xmlns="http://www.w3.org/2000/svg"><path d="M27.729 14.795L16.409 3.481l-.76-.76a.923.923 0 00-1.3 0L2.269 14.796a1.872 1.872 0 00-.55 1.348c.012 1.03.87 1.854 1.901 1.854h1.245v9.542h20.268v-9.542h1.271a1.87 1.87 0 001.328-.55 1.865 1.865 0 00.547-1.328c0-.498-.196-.97-.55-1.324zM16.639 25.43h-3.28v-5.977h3.28v5.977zm6.385-9.542v9.542h-4.51v-6.68c0-.647-.524-1.172-1.171-1.172h-4.688c-.647 0-1.171.525-1.171 1.172v6.68h-4.51v-9.542H4.163l10.84-10.831.677.676 10.16 10.155h-2.815z" fill="#1D61B1"/></svg>