<svg width="78" height="78" fill="none" xmlns="http://www.w3.org/2000/svg"><path d="M6.5 19.5a13 13 0 0113-13h39a13 13 0 0113 13v39a13 13 0 01-13 13h-39a13 13 0 01-13-13v-39z" stroke="#B4B4B4" stroke-opacity=".45" stroke-width="2" stroke-linecap="round" stroke-linejoin="round"/><path d="M27.625 35.75a8.125 8.125 0 100-16.25 8.125 8.125 0 000 16.25zm19.585 5.268L19.5 71.5h39.432A12.568 12.568 0 0071.5 58.932V58.5c0-1.514-.569-2.096-1.593-3.218L56.81 41a6.5 6.5 0 00-9.6.02v0z" stroke="#B4B4B4" stroke-opacity=".45" stroke-width="2" stroke-linecap="round" stroke-linejoin="round"/></svg>