<svg width="79" height="29" fill="none" xmlns="http://www.w3.org/2000/svg"><path d="M11.644 10.536s-7.5 4.3-6.164 9.98C7.04 27.155 25.923 29 25.923 29s-13.797-3.343-15.81-10.03c-1.561-4.99 1.531-8.434 1.531-8.434z" fill="#fff"/><path d="M2.455 0s8.862 2.545 11.455 6.986c1.939 2.894-.982 6.288-.982 6.288s6.042-3.144 4.934-6.638C16.755 3.144 7.339.55 2.455 0z" fill="#fff"/><path d="M13.835 28.236C6.498 28.236.529 22.321.529 15.05c0-5.4 3.293-10.052 7.994-12.088a27.139 27.139 0 00-.59-.309C3.25 4.853 0 9.581 0 15.05c0 7.56 6.206 13.71 13.835 13.71a13.93 13.93 0 004.187-.641 56.521 56.521 0 01-1.045-.255c-1.01.241-2.06.372-3.142.372zm0-26.372c7.337 0 13.306 5.916 13.306 13.187 0 4.972-2.793 9.309-6.905 11.555.207.088.414.172.617.253 4.076-2.388 6.816-6.786 6.816-11.81 0-7.559-6.206-13.71-13.835-13.71-.93 0-1.84.093-2.719.268.338.119.67.242 1 .369a13.444 13.444 0 011.72-.112zM37.438 4.98v8.8h-.74V5.62h-2.825l-.107 3.35c-.054 1.793-.222 3.042-.504 3.75-.282.707-.798 1.06-1.55 1.06h-.232v-.628h.2c.481 0 .815-.286 1-.858.187-.572.304-1.68.355-3.324l.131-3.989h4.272V4.98zm6.969 5.64c0 1.083-.242 1.902-.724 2.456-.483.554-1.154.831-2.014.831-.844 0-1.501-.278-1.971-.834-.47-.556-.706-1.374-.706-2.454V8.153c0-1.08.235-1.9.706-2.46.47-.56 1.127-.84 1.97-.84.857 0 1.527.282 2.011.844.485.561.728 1.38.728 2.456v2.466zm-.74-2.484c0-.883-.17-1.54-.511-1.974-.341-.433-.837-.65-1.489-.65-.63 0-1.11.217-1.437.65-.329.433-.492 1.091-.492 1.974v2.484c0 .89.164 1.553.492 1.99.328.434.807.652 1.437.652.652 0 1.148-.217 1.489-.65.34-.433.511-1.097.511-1.992V8.136zm3.221-3.156l2.381 7.73h.025l2.38-7.73h.953v8.8h-.733V9.918l.075-3.608-.019-.006-2.425 7.476h-.488l-2.42-7.476-.018.006.075 3.608v3.862h-.727v-8.8h.941zm11.733.64h-3.59V8.8h1.773c.773 0 1.362.221 1.768.663.405.44.608 1.047.608 1.816 0 .773-.203 1.383-.611 1.83-.407.448-.996.671-1.765.671h-2.519v-8.8h4.336v.64zm-3.59 3.815v3.717h1.773c.56 0 .972-.174 1.238-.523.265-.35.398-.803.398-1.364 0-.535-.134-.975-.401-1.317-.268-.342-.679-.514-1.235-.514h-1.773zm9.487 1.873h-3.102l-.74 2.472h-.764l2.738-8.8h.665l2.7 8.8h-.764l-.733-2.472zm-2.908-.634h2.72l-1.347-4.522h-.019l-1.354 4.522zm6.323-.538v3.645h-.74V4.98h2.57c.768 0 1.355.231 1.763.695.407.464.61 1.09.61 1.88 0 .798-.203 1.427-.61 1.888-.406.462-.995.692-1.764.692h-1.83v.001zm0-.635h1.83c.555 0 .966-.18 1.233-.543.268-.362.401-.826.401-1.39 0-.572-.132-1.04-.397-1.403-.266-.362-.678-.543-1.238-.543h-1.83v3.88zm11.057 5.055h-.74v-.776h-5.307v.776h-.74v-1.404h.533c.26-.319.51-.87.755-1.656.245-.787.388-1.896.43-3.33l.137-3.186h4.086v8.172h.846v1.404zm-4.323-6.39c-.047 1.173-.174 2.179-.383 3.018-.208.84-.468 1.496-.776 1.968h3.89V5.62h-2.625l-.106 2.545zM37.822 26.433H36.01V19.01h-2.723v7.423h-1.818v-8.8h6.353v8.8zm8.775-1.88H44.25l-.463 1.88h-1.831l2.535-8.8h1.883l2.522 8.8h-1.824l-.476-1.88zm-2.007-1.372h1.668l-.827-3.312h-.02l-.821 3.313zm10.251.097v3.155h-1.818v-8.8h3.167c.916 0 1.634.255 2.154.767s.779 1.197.779 2.056c0 .861-.26 1.548-.779 2.057-.52.51-1.238.765-2.154.765h-1.349zm0-1.378h1.35c.368 0 .647-.133.834-.4.187-.265.28-.61.28-1.033 0-.431-.094-.782-.28-1.051-.187-.27-.465-.406-.835-.406h-1.349v2.89zm11.268-.272l.013.042h.02l1.25-4.038h1.903l-2.503 7.09c-.252.601-.529 1.056-.83 1.369-.302.312-.742.469-1.32.469a4.74 4.74 0 01-.297-.01c-.11-.006-.203-.01-.276-.015l-.02-1.372c.035.013.094.02.18.022l.218.003c.273 0 .47-.07.592-.209.122-.14.221-.361.3-.667l.085-.296h-.014l-2.633-6.383h1.942l1.39 3.995zm12.883 2.067c-.004.964-.263 1.682-.775 2.155-.513.474-1.257.71-2.23.71-.95 0-1.682-.27-2.192-.812-.51-.542-.766-1.341-.766-2.397v-2.63c0-1.043.262-1.84.785-2.39.524-.55 1.248-.825 2.174-.825.99 0 1.732.239 2.225.717.493.477.756 1.21.786 2.197H77.18c.021-.556-.056-.951-.232-1.185-.175-.233-.497-.35-.962-.35-.395 0-.685.146-.87.437-.184.293-.276.755-.276 1.387v2.641c0 .653.087 1.122.26 1.409.174.287.47.429.886.429.435 0 .746-.112.935-.336.19-.224.273-.609.251-1.158h1.82v.001z" fill="#fff"/></svg>