<svg width="299" height="111" fill="none" xmlns="http://www.w3.org/2000/svg"><g clip-path="url(#clip0_1023_7709)" fill="#234D9C"><path d="M44.075 40.33s-28.386 16.46-23.331 38.2C26.65 103.937 98.118 111 98.118 111S45.9 98.204 38.278 72.61c-5.908-19.1 5.797-32.28 5.797-32.28z"/><path d="M9.293 0s33.542 9.74 43.355 26.741c7.338 11.077-3.718 24.065-3.718 24.065S71.8 38.774 67.605 25.401C63.415 12.033 27.776 2.101 9.293 0z"/><path d="M52.362 108.077c-27.768 0-50.36-22.643-50.36-50.473 0-20.668 12.463-38.472 30.254-46.265-.743-.408-1.485-.8-2.228-1.183C12.298 18.572 0 36.673 0 57.604c0 28.935 23.488 52.479 52.362 52.479a52.13 52.13 0 0015.849-2.456c-1.31-.31-2.631-.635-3.957-.976a50.459 50.459 0 01-11.892 1.426zM52.36 7.135c27.768 0 50.36 22.643 50.36 50.473 0 19.034-10.57 35.631-26.134 44.228.786.337 1.568.658 2.338.971 15.426-9.14 25.794-25.977 25.794-45.203 0-28.935-23.488-52.479-52.362-52.479-3.523 0-6.963.357-10.29 1.027 1.279.454 2.538.924 3.78 1.41a50.328 50.328 0 016.514-.427zm89.336 11.927v33.684h-2.799V21.515h-10.696l-.403 12.816c-.207 6.864-.84 11.648-1.907 14.356-1.068 2.707-3.022 4.059-5.868 4.059h-.876V50.34h.758c1.818 0 3.081-1.093 3.785-3.283.703-2.19 1.149-6.43 1.341-12.722l.496-15.27h16.169v-.003zm26.376 21.585c0 4.15-.915 7.284-2.741 9.403-1.826 2.12-4.367 3.182-7.623 3.182-3.194 0-5.681-1.066-7.459-3.193-1.779-2.128-2.67-5.258-2.67-9.392v-9.439c0-4.133.887-7.272 2.67-9.415 1.778-2.143 4.265-3.217 7.459-3.217 3.241 0 5.778 1.078 7.611 3.229 1.834 2.15 2.753 5.285 2.753 9.403v9.439zm-2.8-9.505c0-3.378-.645-5.897-1.935-7.555-1.29-1.657-3.166-2.488-5.633-2.488-2.389 0-4.203.831-5.442 2.488-1.243 1.658-1.861 4.177-1.861 7.555v9.509c0 3.408.622 5.944 1.861 7.613 1.243 1.665 3.057 2.5 5.442 2.5 2.467 0 4.343-.831 5.633-2.489 1.29-1.657 1.935-4.2 1.935-7.624v-9.51zm12.187-12.08l9.011 29.59h.094l9.011-29.59h3.604v33.684h-2.775V37.963l.285-13.812-.07-.023-9.179 28.618h-1.85l-9.155-28.618-.071.023.286 13.812v14.783h-2.753V19.062h3.562zm44.411 2.453h-13.589v12.17h6.712c2.924 0 5.153.846 6.689 2.534 1.532 1.689 2.303 4.008 2.303 6.95 0 2.963-.771 5.298-2.315 7.01-1.54 1.713-3.768 2.567-6.677 2.567h-9.535V19.062h16.412v2.453zm-13.589 14.598V50.34h6.712c2.119 0 3.679-.666 4.683-2.002 1.005-1.336 1.506-3.072 1.506-5.219 0-2.05-.505-3.734-1.517-5.043-1.013-1.308-2.569-1.967-4.672-1.967h-6.712v.004zm35.903 7.17h-11.74l-2.799 9.463h-2.893l10.364-33.684h2.514l10.223 33.684h-2.893l-2.776-9.463zm-11.005-2.429h10.294l-5.098-17.306h-.07l-5.126 17.306zm23.933-2.057V52.75h-2.8V19.062h9.723c2.909 0 5.133.885 6.677 2.66 1.541 1.775 2.311 4.173 2.311 7.194 0 3.056-.77 5.466-2.311 7.229-1.54 1.767-3.768 2.648-6.677 2.648h-6.923v.004zm0-2.429h6.923c2.103 0 3.659-.694 4.672-2.08 1.012-1.387 1.517-3.162 1.517-5.321 0-2.19-.501-3.981-1.505-5.368-1.005-1.387-2.565-2.08-4.684-2.08h-6.923v14.849zm41.85 19.348h-2.799v-2.97h-20.09v2.97h-2.799V50.34h2.017c.981-1.219 1.931-3.33 2.858-6.34.926-3.009 1.466-7.256 1.626-12.745l.52-12.193h15.465V50.34h3.202v5.376zm-16.364-24.461c-.176 4.49-.657 8.342-1.447 11.554-.79 3.217-1.771 5.725-2.94 7.531h14.727V21.514H283l-.402 9.74zm-139.45 69.918h-6.857v-28.41h-10.309v28.41h-6.88V67.489h24.046v33.684zm33.214-7.193h-8.878l-1.751 7.193h-6.932l9.594-33.684h7.127l9.546 33.684h-6.904l-1.802-7.193zm-7.596-5.25h6.314l-3.132-12.68h-.074l-3.108 12.68zm38.802.368v12.075h-6.88V67.489h11.986c3.467 0 6.184.98 8.151 2.939 1.966 1.959 2.947 4.58 2.947 7.867 0 3.3-.981 5.928-2.947 7.876-1.967 1.951-4.684 2.927-8.151 2.927h-5.106zm0-5.274h5.106c1.395 0 2.451-.51 3.158-1.528.708-1.019 1.06-2.335 1.06-3.958 0-1.649-.356-2.993-1.06-4.023-.707-1.035-1.759-1.552-3.158-1.552h-5.106v11.06zm42.633-1.042l.051.16h.075l4.734-15.453h7.201l-9.473 27.137c-.953 2.3-2.001 4.044-3.143 5.239-1.141 1.195-2.807 1.794-4.996 1.794-.328 0-.704-.012-1.122-.035l-1.048-.059-.074-5.25c.133.047.356.074.68.082.321.008.595.012.825.012 1.036 0 1.783-.267 2.244-.8.462-.532.837-1.383 1.134-2.554l.321-1.132h-.051l-9.965-24.43h7.349l5.258 15.289zm48.77 7.914c-.016 3.687-.997 6.437-2.936 8.248-1.939 1.814-4.754 2.719-8.436 2.719-3.601 0-6.369-1.039-8.3-3.111-1.931-2.073-2.897-5.133-2.897-9.173V79.314c0-3.993.989-7.045 2.971-9.149 1.982-2.104 4.723-3.158 8.226-3.158 3.749 0 6.556.913 8.424 2.743 1.865 1.826 2.858 4.631 2.971 8.408h-6.88c.082-2.127-.211-3.64-.876-4.533-.664-.894-1.88-1.344-3.639-1.344-1.498 0-2.596.56-3.292 1.677-.7 1.12-1.048 2.888-1.048 5.309v10.109c0 2.5.329 4.294.985 5.39.657 1.098 1.775 1.643 3.355 1.643 1.645 0 2.822-.428 3.538-1.286.715-.858 1.032-2.33.95-4.43h6.884v.003z"/></g><defs><clipPath id="clip0_1023_7709"><path fill="#fff" d="M0 0h299v111H0z"/></clipPath></defs></svg>